<svg width="58" height="57" viewBox="0 0 58 57" fill="none" xmlns="http://www.w3.org/2000/svg">
<path fill-rule="evenodd" clip-rule="evenodd" d="M57.2656 53.8123L54.3124 56.7656L37.9999 40.4529C37.0617 41.2968 36.0312 42.0483 34.9062 42.7031C33.7812 43.3601 32.6079 43.9224 31.3906 44.3906C30.1711 44.8608 28.8813 45.2123 27.5233 45.4453C26.1633 45.6803 24.8273 45.7969 23.5156 45.7969C20.3273 45.7969 17.35 45.1881 14.5859 43.9685C11.8195 42.7514 9.40472 41.11 7.34372 39.0467C5.28044 36.9856 3.66326 34.571 2.49212 31.8046C1.31882 29.0404 0.7343 26.1093 0.7343 23.0155C0.7343 19.8295 1.31882 16.8521 2.49212 14.0859C3.66326 11.3218 5.28044 8.90693 7.34372 6.84364C9.40472 4.78259 11.8195 3.16528 14.5859 1.99201C17.35 0.820976 20.3273 0.234162 23.5156 0.234162C26.6094 0.234162 29.5383 0.820976 32.3047 1.99201C35.0688 3.16528 37.4836 4.78259 39.5469 6.84364C41.6079 8.90693 43.2493 11.3218 44.4687 14.0859C45.686 16.8521 46.2968 19.8295 46.2968 23.0155C46.2968 24.3293 46.1781 25.6653 45.9453 27.0232C45.7101 28.3834 45.3585 29.6733 44.8906 30.8904C44.4203 32.1101 43.8579 33.2811 43.2031 34.4061C42.5461 35.531 41.7968 36.5638 40.9531 37.4999L57.2656 53.8123ZM3.12494 23.0155C3.12494 25.828 3.63914 28.4537 4.6718 30.8904C5.7023 33.3295 7.15478 35.485 9.03122 37.3593C10.9054 39.2358 13.0851 40.7123 15.5703 41.7889C18.0531 42.8677 20.703 43.4062 23.5156 43.4062C26.3281 43.4062 28.9516 42.8677 31.3906 41.7889C33.8273 40.7123 35.9829 39.2358 37.8593 37.3593C39.7336 35.485 41.2101 33.3295 42.289 30.8904C43.3657 28.4537 43.9062 25.828 43.9062 23.0155C43.9062 20.203 43.3657 17.5552 42.289 15.0701C41.2101 12.5872 39.7336 10.4076 37.8593 8.53115C35.9829 6.65678 33.8273 5.20444 31.3906 4.17165C28.9516 3.14115 26.3281 2.62484 23.5156 2.62484C20.703 2.62484 18.0531 3.14115 15.5703 4.17165C13.0851 5.20444 10.9054 6.65678 9.03122 8.53115C7.15478 10.4076 5.7023 12.5872 4.6718 15.0701C3.63914 17.5552 3.12494 20.203 3.12494 23.0155Z" fill="#5474FD"/>
</svg>
