<svg width="60" height="61" viewBox="0 0 60 61" fill="none" xmlns="http://www.w3.org/2000/svg">
<path fill-rule="evenodd" clip-rule="evenodd" d="M30 0.546839C34.1242 0.546839 38.0156 1.32023 41.6718 2.867C45.3281 4.41403 48.5141 6.54759 51.2343 9.26541C53.9523 11.9857 56.0859 15.1717 57.6328 18.8281C59.1796 22.4843 59.9531 26.3756 59.9531 30.4999C59.9531 34.6263 59.1796 38.5154 57.6328 42.1718C56.0859 45.828 53.9523 49.0162 51.2343 51.7343C48.5141 54.4544 45.3281 56.5859 41.6718 58.1327C38.0156 59.6795 34.1242 60.4531 30 60.4531C25.8735 60.4531 21.9843 59.6795 18.3281 58.1327C14.6718 56.5859 11.4836 54.4544 8.76562 51.7343C6.04543 49.0162 3.914 45.828 2.36716 42.1718C0.820258 38.5154 0.046808 34.6263 0.046808 30.4999C0.046808 26.3756 0.820258 22.4843 2.36716 18.8281C3.914 15.1717 6.04543 11.9857 8.76562 9.26541C11.4836 6.54759 14.6718 4.41403 18.3281 2.867C21.9843 1.32023 25.8735 0.546839 30 0.546839ZM30 58.0624C33.8429 58.0624 37.4288 57.3374 40.7578 55.8828C44.0844 54.4302 47.0156 52.4857 49.5469 50.0467C51.9836 47.5155 53.9282 44.5867 55.3827 41.2576C56.8351 37.9309 57.5625 34.345 57.5625 30.4999C57.5625 26.6569 56.8351 23.0708 55.3827 19.742C53.9282 16.4153 51.9836 13.4841 49.5469 10.9529C47.0156 8.51621 44.0844 6.57178 40.7578 5.11717C37.4288 3.66458 33.8429 2.93725 30 2.93725C26.1548 2.93725 22.5688 3.66458 19.2421 5.11717C15.9132 6.57178 12.9843 8.51621 10.453 10.9529C8.01412 13.4841 6.06955 16.4153 4.6172 19.742C3.16256 23.0708 2.4374 26.6569 2.4374 30.4999C2.4374 34.345 3.16256 37.9309 4.6172 41.2576C6.06955 44.5867 8.01412 47.5155 10.453 50.0467C12.9843 52.4857 15.9132 54.4302 19.2421 55.8828C22.5688 57.3374 26.1548 58.0624 30 58.0624ZM45.0468 19.8123C45.3281 19.4388 45.7258 19.25 46.2421 19.25C46.7563 19.25 47.2023 19.4388 47.5781 19.8123C47.8593 20.188 48 20.6341 48 21.1483C48 21.6646 47.8109 22.0625 47.4375 22.3438L26.9063 42.3123C26.8117 42.5012 26.6469 42.6178 26.414 42.6639C26.1789 42.7122 25.968 42.7342 25.7812 42.7342C25.4999 42.7342 25.2407 42.7122 25.0078 42.6639C24.7727 42.6178 24.6079 42.5012 24.5155 42.3123L16.4999 34.2966C16.1242 33.9232 15.9375 33.4772 15.9375 32.9609C15.9375 32.4466 16.1242 32.0467 16.4999 31.7654C16.7812 31.392 17.179 31.2031 17.6953 31.2031C18.2095 31.2031 18.6554 31.392 19.0311 31.7654L25.7812 38.5154L45.0468 19.8123Z" fill="#FF6363"/>
</svg>
